<?xml version="1.0" encoding="utf-8"?>
<!-- Generator: Adobe Illustrator 16.0.0, SVG Export Plug-In . SVG Version: 6.00 Build 0)  -->
<!DOCTYPE svg PUBLIC "-//W3C//DTD SVG 1.1//EN" "http://www.w3.org/Graphics/SVG/1.1/DTD/svg11.dtd">
<svg version="1.1" id="Layer_1" xmlns="http://www.w3.org/2000/svg" xmlns:xlink="http://www.w3.org/1999/xlink" x="0px" y="0px"
	 width="1644px" height="445.333px" viewBox="0 0 1644 445.333" enable-background="new 0 0 1644 445.333" xml:space="preserve">
<g>
	<defs>
		<rect id="SVGID_1_" x="19.333" y="-101.187" width="1700.76" height="728.52"/>
	</defs>
	<clipPath id="SVGID_2_">
		<use xlink:href="#SVGID_1_"  overflow="visible"/>
	</clipPath>
	<path display="none" clip-path="url(#SVGID_2_)" fill="#1A171B" d="M447.884,266.186c3.503,11.192,8.871,20.858,16.11,28.998
		c7.234,8.139,16.449,14.53,27.642,19.162c11.192,4.632,24.471,6.953,39.85,6.953c12.21,0,23.115-1.135,32.729-3.393
		c9.607-2.257,16.332-4.408,20.179-6.443l-4.409-26.454c-3.847,1.812-9.554,3.678-17.127,5.597
		c-7.578,1.923-16.905,2.882-27.979,2.882c-19.671,0-34.144-4.749-43.412-14.245c-9.274-9.495-14.584-23.4-15.941-41.714h120.74
		c0.222-1.808,0.339-3.784,0.339-5.936v-5.257c0-30.296-6.333-52.849-18.993-67.661c-12.665-14.806-30.863-22.215-54.604-22.215
		c-10.175,0-20.126,1.924-29.845,5.766c-9.725,3.847-18.315,9.613-25.776,17.297c-7.462,7.689-13.455,17.355-17.975,28.998
		c-4.526,11.648-6.784,25.267-6.784,40.868C442.627,242.732,444.376,254.994,447.884,266.186 M476.204,212.091
		c0.678-6.105,2.088-12.093,4.239-17.976c2.147-5.876,5.14-11.075,8.988-15.601c3.842-4.52,8.532-8.192,14.075-11.022
		c5.538-2.824,11.923-4.239,19.162-4.239c12.888,0,23.004,4.578,30.354,13.735c7.345,9.158,10.907,20.858,10.684,35.103H476.204z"/>
	<path display="none" clip-path="url(#SVGID_2_)" fill="#1A171B" d="M625.09,317.229h31.542V168.34
		c1.128-0.222,2.994-0.562,5.596-1.017c2.596-0.451,5.537-0.848,8.818-1.187c3.274-0.34,6.724-0.62,10.344-0.848
		c3.614-0.223,7.122-0.339,10.513-0.339c8.363,0,15.374,1.075,21.028,3.221c5.649,2.152,10.175,5.597,13.566,10.345
		c3.392,4.748,5.819,10.969,7.292,18.653c1.468,7.689,2.205,16.958,2.205,27.811v92.25h31.541v-99.033
		c0-11.982-1.134-22.946-3.391-32.898c-2.263-9.947-6.163-18.484-11.701-25.606c-5.543-7.123-12.946-12.66-22.215-16.619
		c-9.274-3.953-20.916-5.935-34.933-5.935c-15.601,0-29.395,1.017-41.377,3.052c-11.987,2.035-21.595,3.959-28.828,5.766V317.229z"
		/>
	<path display="none" clip-path="url(#SVGID_2_)" fill="#1A171B" d="M860.121,294.167c-4.977-0.678-9.157-1.526-12.548-2.544
		c-3.392-1.018-6.104-2.543-8.14-4.578s-3.508-4.748-4.41-8.141c-0.905-3.391-1.356-7.683-1.356-12.887V54.044l-31.541,5.427
		v211.633c0,16.735,4.07,29.057,12.209,36.968c8.14,7.917,21.929,12.093,41.377,12.549L860.121,294.167z"/>
	<path display="none" clip-path="url(#SVGID_2_)" fill="#1A171B" d="M926.933,140.869h-31.542v176.36h31.542V140.869z
		 M925.407,103.392c3.953-3.731,5.936-8.76,5.936-15.093c0-6.327-1.982-11.361-5.936-15.092c-3.959-3.73-8.766-5.596-14.414-5.596
		c-5.653,0-10.461,1.865-14.414,5.596c-3.959,3.731-5.936,8.765-5.936,15.092c0,6.333,1.977,11.362,5.936,15.093
		c3.953,3.73,8.761,5.596,14.414,5.596C916.641,108.988,921.448,107.122,925.407,103.392"/>
	<path display="none" clip-path="url(#SVGID_2_)" fill="#1A171B" d="M1010.701,86.264L979.16,91.69v157.368
		c0,11.76,0.959,22.104,2.883,31.033c1.918,8.936,5.258,16.449,10.005,22.554c4.748,6.105,11.022,10.684,18.823,13.736
		c7.801,3.052,17.688,4.578,29.676,4.578c10.176,0,19.217-1.188,27.133-3.562c7.912-2.373,13.449-4.35,16.618-5.935l-6.104-26.116
		c-2.264,0.907-6.274,2.434-12.04,4.58c-5.765,2.151-13.396,3.221-22.894,3.221c-5.426,0-10.174-0.677-14.244-2.033
		c-4.069-1.357-7.46-3.674-10.175-6.953c-2.713-3.275-4.747-7.801-6.104-13.566c-1.356-5.766-2.035-13.058-2.035-21.876v-81.397
		h66.813v-26.454h-66.813V86.264z"/>
	<path display="none" clip-path="url(#SVGID_2_)" fill="#1A171B" d="M1109.564,266.186c3.504,11.192,8.871,20.858,16.11,28.998
		c7.233,8.139,16.448,14.53,27.641,19.162s24.473,6.953,39.851,6.953c12.21,0,23.115-1.135,32.729-3.393
		c9.607-2.257,16.333-4.408,20.18-6.443l-4.409-26.454c-3.847,1.812-9.554,3.678-17.127,5.597
		c-7.578,1.923-16.904,2.882-27.98,2.882c-19.671,0-34.144-4.749-43.412-14.245c-9.273-9.495-14.583-23.4-15.939-41.714h120.739
		c0.222-1.808,0.339-3.784,0.339-5.936v-5.257c0-30.296-6.333-52.849-18.993-67.661c-12.665-14.806-30.863-22.215-54.604-22.215
		c-10.175,0-20.127,1.924-29.846,5.766c-9.725,3.847-18.314,9.613-25.776,17.297c-7.461,7.689-13.454,17.355-17.975,28.998
		c-4.525,11.648-6.783,25.267-6.783,40.868C1104.307,242.732,1106.056,254.994,1109.564,266.186 M1137.883,212.091
		c0.679-6.105,2.088-12.093,4.239-17.976c2.146-5.876,5.141-11.075,8.988-15.601c3.842-4.52,8.531-8.192,14.074-11.022
		c5.538-2.824,11.924-4.239,19.163-4.239c12.888,0,23.004,4.578,30.354,13.735c7.345,9.158,10.907,20.858,10.684,35.103H1137.883z"
		/>
	<path display="none" clip-path="url(#SVGID_2_)" fill="#A02343" d="M1334.929,282.975c-4.069-4.521-9.612-6.783-16.618-6.783
		c-7.012,0-12.549,2.262-16.619,6.783c-4.069,4.524-6.104,9.835-6.104,15.938c0,6.106,2.035,11.42,6.104,15.941
		c4.07,4.52,9.607,6.783,16.619,6.783c7.006,0,12.549-2.264,16.618-6.783c4.07-4.521,6.104-9.835,6.104-15.941
		C1341.033,292.81,1339,287.5,1334.929,282.975"/>
	<path display="none" clip-path="url(#SVGID_2_)" fill="#A02343" d="M1429.888,143.582c-11.081,4.298-20.518,10.403-28.319,18.314
		c-7.801,7.918-13.794,17.583-17.976,28.998c-4.186,11.42-6.274,24.25-6.274,38.494c0,13.344,1.749,25.606,5.259,36.798
		c3.502,11.192,8.647,20.858,15.431,28.997c6.782,8.141,15.203,14.474,25.267,18.993c10.058,4.521,21.759,6.783,35.103,6.783
		c12.21,0,22.724-1.866,31.541-5.596c8.818-3.731,16.052-7.742,21.706-12.04c4.293,5.427,9.889,9.666,16.789,12.719
		c6.894,3.051,15.431,4.578,25.605,4.578l4.409-26.454c-4.976-0.678-9.216-1.527-12.719-2.544c-3.507-1.017-6.332-2.713-8.479-5.087
		c-2.151-2.374-3.73-5.538-4.748-9.496c-1.018-3.953-1.525-9.21-1.525-15.771V147.651c-2.942-1.129-6.731-2.316-11.362-3.561
		c-4.638-1.24-9.783-2.374-15.432-3.392c-5.654-1.017-11.701-1.865-18.146-2.544c-6.443-0.678-12.834-1.017-19.162-1.017
		C1453.291,137.138,1440.964,139.29,1429.888,143.582 M1437.519,288.571c-6.443-3.275-11.7-7.801-15.771-13.566
		c-4.068-5.766-7.01-12.549-8.817-20.35c-1.812-7.8-2.713-16.221-2.713-25.267c0-20.571,5.141-36.4,15.432-47.482
		c10.286-11.075,24.472-16.618,42.563-16.618c7.006,0,13.509,0.509,19.502,1.526c5.988,1.018,9.889,1.865,11.701,2.544v90.554
		c0,7.462,0.678,14.245,2.034,20.349c-3.618,2.714-8.987,5.598-16.109,8.649c-7.122,3.053-15.32,4.579-24.589,4.579
		C1451.707,293.489,1443.963,291.851,1437.519,288.571"/>
	<path display="none" clip-path="url(#SVGID_2_)" fill="#A02343" d="M1624.22,140.869h-31.542v176.36h31.542V140.869z
		 M1622.694,103.392c3.953-3.731,5.937-8.76,5.937-15.093c0-6.327-1.983-11.361-5.937-15.092c-3.959-3.73-8.765-5.596-14.414-5.596
		c-5.654,0-10.461,1.865-14.414,5.596c-3.959,3.731-5.936,8.765-5.936,15.092c0,6.333,1.977,11.362,5.936,15.093
		c3.953,3.73,8.76,5.596,14.414,5.596C1613.929,108.988,1618.735,107.122,1622.694,103.392"/>
	<path display="none" clip-path="url(#SVGID_2_)" fill="#58585A" d="M476.304,359.542c-1.759-1.948-3.855-3.449-6.29-4.505
		c-2.434-1.055-5.086-1.583-7.953-1.583c-2.868,0-5.518,0.528-7.953,1.583c-2.434,1.056-4.531,2.557-6.289,4.505
		c-1.759,1.947-3.124,4.287-4.098,7.02c-0.974,2.732-1.461,5.749-1.461,9.049c0,3.354,0.487,6.383,1.461,9.088
		c0.974,2.707,2.339,5.032,4.098,6.979c1.758,1.948,3.855,3.449,6.289,4.505c2.435,1.055,5.085,1.582,7.953,1.582
		c2.867,0,5.519-0.527,7.953-1.582c2.435-1.056,4.531-2.557,6.29-4.505c1.757-1.947,3.124-4.272,4.098-6.979
		c0.974-2.705,1.461-5.733,1.461-9.088c0-3.3-0.487-6.316-1.461-9.049C479.428,363.83,478.061,361.49,476.304,359.542
		 M470.785,386.931c-2.137,2.787-5.045,4.18-8.724,4.18c-3.68,0-6.587-1.393-8.724-4.18c-2.137-2.786-3.205-6.561-3.205-11.32
		c0-4.761,1.068-8.535,3.205-11.322c2.137-2.785,5.044-4.179,8.724-4.179c3.679,0,6.587,1.394,8.724,4.179
		c2.137,2.787,3.206,6.562,3.206,11.322C473.991,380.371,472.922,384.145,470.785,386.931 M538.385,359.015
		c-1.326-1.705-3.097-3.029-5.315-3.978c-2.219-0.945-5.005-1.421-8.359-1.421c-3.733,0-7.034,0.245-9.9,0.731
		c-2.869,0.487-5.168,0.947-6.898,1.38v40.982h7.547v-35.626c0.27-0.054,0.716-0.136,1.338-0.244
		c0.622-0.107,1.326-0.202,2.111-0.284c0.783-0.081,1.609-0.149,2.475-0.202c0.865-0.054,1.704-0.081,2.515-0.081
		c2.001,0,3.679,0.257,5.032,0.771c1.352,0.515,2.435,1.339,3.246,2.476c0.812,1.136,1.392,2.624,1.745,4.463
		c0.351,1.84,0.527,4.057,0.527,6.654v22.074h7.548v-23.697c0-2.866-0.272-5.49-0.812-7.871
		C540.644,362.761,539.711,360.719,538.385,359.015 M586.792,353.455c-2.435,0-4.816,0.46-7.142,1.381
		c-2.326,0.92-4.381,2.3-6.167,4.139c-1.785,1.84-3.219,4.152-4.301,6.938c-1.083,2.787-1.623,6.047-1.623,9.78
		c0,3.192,0.418,6.127,1.258,8.804c0.838,2.679,2.123,4.992,3.854,6.939c1.731,1.948,3.936,3.476,6.615,4.585
		c2.677,1.108,5.855,1.664,9.535,1.664c2.921,0,5.531-0.272,7.831-0.813c2.299-0.54,3.908-1.054,4.829-1.542l-1.055-6.33
		c-0.921,0.435-2.286,0.881-4.098,1.34c-1.814,0.461-4.045,0.69-6.696,0.69c-4.707,0-8.17-1.137-10.387-3.41
		c-2.219-2.271-3.49-5.599-3.814-9.98h28.89c0.054-0.434,0.081-0.905,0.081-1.42v-1.258c0-7.249-1.515-12.646-4.544-16.19
		C596.827,355.228,592.473,353.455,586.792,353.455 M575.593,371.553c0.162-1.461,0.5-2.895,1.014-4.302
		c0.514-1.406,1.23-2.65,2.151-3.732c0.919-1.082,2.041-1.961,3.368-2.638c1.325-0.677,2.853-1.016,4.585-1.016
		c3.084,0,5.504,1.097,7.263,3.288c1.758,2.19,2.61,4.99,2.556,8.399H575.593z M729.497,359.015
		c-1.327-1.705-3.098-3.029-5.316-3.978c-2.219-0.945-5.005-1.421-8.359-1.421c-3.733,0-7.033,0.245-9.9,0.731
		c-2.869,0.487-5.168,0.947-6.898,1.38v40.982h7.547v-35.626c0.271-0.054,0.716-0.136,1.339-0.244
		c0.621-0.107,1.325-0.202,2.11-0.284c0.783-0.081,1.609-0.149,2.475-0.202c0.865-0.054,1.704-0.081,2.516-0.081
		c2.001,0,3.679,0.257,5.032,0.771c1.351,0.515,2.434,1.339,3.246,2.476c0.811,1.136,1.392,2.624,1.744,4.463
		c0.351,1.84,0.528,4.057,0.528,6.654v22.074h7.547v-23.697c0-2.866-0.271-5.49-0.812-7.871S730.822,360.719,729.497,359.015
		 M777.903,353.455c-2.434,0-4.816,0.46-7.141,1.381c-2.327,0.92-4.383,2.3-6.168,4.139c-1.785,1.84-3.219,4.152-4.301,6.938
		c-1.082,2.787-1.623,6.047-1.623,9.78c0,3.192,0.418,6.127,1.258,8.804c0.838,2.679,2.123,4.992,3.855,6.939
		c1.731,1.948,3.936,3.476,6.614,4.585c2.678,1.108,5.856,1.664,9.535,1.664c2.922,0,5.531-0.272,7.831-0.813
		c2.3-0.54,3.908-1.054,4.829-1.542l-1.055-6.33c-0.92,0.435-2.286,0.881-4.098,1.34c-1.813,0.461-4.045,0.69-6.695,0.69
		c-4.707,0-8.17-1.137-10.388-3.41c-2.219-2.271-3.489-5.599-3.814-9.98h28.89c0.054-0.434,0.082-0.905,0.082-1.42v-1.258
		c0-7.249-1.515-12.646-4.545-16.19C787.939,355.228,783.584,353.455,777.903,353.455 M766.704,371.553
		c0.163-1.461,0.5-2.895,1.015-4.302c0.513-1.406,1.23-2.65,2.15-3.732s2.042-1.961,3.368-2.638
		c1.325-0.677,2.853-1.016,4.585-1.016c3.084,0,5.505,1.097,7.264,3.288c1.757,2.19,2.609,4.99,2.556,8.399H766.704z
		 M847.857,390.137c-0.271,0.107-0.718,0.202-1.34,0.283s-1.313,0.163-2.068,0.243c-0.759,0.081-1.57,0.15-2.436,0.202
		c-0.865,0.056-1.704,0.083-2.516,0.083c-3.842,0-6.573-1.108-8.196-3.329c-1.623-2.217-2.435-5.895-2.435-11.035V354.51h-7.548
		v23.696c0,2.868,0.298,5.479,0.894,7.831c0.595,2.354,1.568,4.397,2.921,6.127c1.352,1.733,3.138,3.072,5.356,4.019
		c2.219,0.945,4.95,1.42,8.196,1.42c3.733,0,7.021-0.244,9.86-0.731c2.84-0.486,5.125-0.945,6.857-1.38V354.51h-7.547V390.137z
		 M904.094,354.064c-0.812-0.134-1.636-0.243-2.475-0.324c-0.84-0.082-1.583-0.123-2.232-0.123c-3.3,0-6.276,0.285-8.926,0.854
		c-2.652,0.567-4.87,1.177-6.655,1.826v40.414h7.547v-35.465c0.433-0.107,1.34-0.31,2.719-0.607c1.38-0.297,2.772-0.447,4.181-0.447
		c2.163,0,3.935,0.15,5.314,0.447c1.38,0.298,2.366,0.555,2.962,0.77l1.299-6.572c-0.324-0.108-0.824-0.229-1.501-0.365
		C905.649,354.335,904.906,354.199,904.094,354.064 M962.24,359.542c-1.759-1.948-3.855-3.449-6.29-4.505
		c-2.435-1.055-5.086-1.583-7.952-1.583c-2.869,0-5.519,0.528-7.952,1.583c-2.436,1.056-4.533,2.557-6.291,4.505
		c-1.759,1.947-3.124,4.287-4.098,7.02s-1.461,5.749-1.461,9.049c0,3.354,0.487,6.383,1.461,9.088
		c0.974,2.707,2.339,5.032,4.098,6.979c1.758,1.948,3.855,3.449,6.291,4.505c2.434,1.055,5.083,1.582,7.952,1.582
		c2.866,0,5.518-0.527,7.952-1.582c2.435-1.056,4.531-2.557,6.29-4.505c1.758-1.947,3.124-4.272,4.098-6.979
		c0.974-2.705,1.461-5.733,1.461-9.088c0-3.3-0.487-6.316-1.461-9.049S963.998,361.49,962.24,359.542 M956.721,386.931
		c-2.137,2.787-5.046,4.18-8.724,4.18c-3.681,0-6.588-1.393-8.725-4.18c-2.138-2.786-3.205-6.561-3.205-11.32
		c0-4.761,1.067-8.535,3.205-11.322c2.137-2.785,5.044-4.179,8.725-4.179c3.678,0,6.587,1.394,8.724,4.179
		c2.137,2.787,3.205,6.562,3.205,11.322C959.926,380.371,958.858,384.145,956.721,386.931 M1024.321,359.015
		c-1.326-1.705-3.098-3.029-5.315-3.978c-2.219-0.945-5.004-1.421-8.358-1.421c-3.733,0-7.034,0.245-9.901,0.731
		c-2.867,0.487-5.167,0.947-6.897,1.38v40.982h7.547v-35.626c0.271-0.054,0.717-0.136,1.339-0.244
		c0.622-0.107,1.325-0.202,2.11-0.284c0.784-0.081,1.609-0.149,2.475-0.202c0.865-0.054,1.705-0.081,2.518-0.081
		c2.001,0,3.678,0.257,5.03,0.771c1.352,0.515,2.435,1.339,3.246,2.476c0.812,1.136,1.393,2.624,1.745,4.463
		c0.352,1.84,0.527,4.057,0.527,6.654v22.074h7.547v-23.697c0-2.866-0.271-5.49-0.812-7.871
		C1026.58,362.761,1025.646,360.719,1024.321,359.015 M1150.51,357.959c-1.271-1.433-2.949-2.542-5.031-3.327
		c-2.083-0.783-4.64-1.178-7.669-1.178c-2.651,0-5.112,0.203-7.385,0.609s-3.896,0.826-4.869,1.258l0.893,6.249
		c0.919-0.378,2.313-0.744,4.18-1.096c1.866-0.351,4.044-0.527,6.532-0.527c1.948,0,3.53,0.284,4.748,0.853
		c1.218,0.566,2.178,1.326,2.882,2.271c0.701,0.947,1.188,2.029,1.461,3.247c0.269,1.216,0.404,2.448,0.404,3.692v2.108
		c-0.217-0.052-0.596-0.133-1.136-0.242c-0.542-0.107-1.177-0.229-1.907-0.365c-0.73-0.135-1.501-0.243-2.313-0.324
		s-1.597-0.122-2.354-0.122c-2.382,0-4.654,0.243-6.817,0.73c-2.164,0.485-4.058,1.244-5.681,2.272s-2.908,2.38-3.854,4.058
		c-0.947,1.678-1.42,3.68-1.42,6.005c0,2.435,0.405,4.518,1.217,6.249c0.812,1.732,1.948,3.124,3.408,4.18
		c1.461,1.055,3.192,1.825,5.194,2.312c2.001,0.487,4.192,0.731,6.573,0.731c1.676,0,3.368-0.069,5.072-0.203
		c1.704-0.136,3.286-0.285,4.747-0.447s2.772-0.337,3.937-0.526c1.162-0.189,2.069-0.337,2.718-0.446v-26.375
		c0-2.38-0.271-4.557-0.812-6.533C1152.688,361.098,1151.782,359.394,1150.51,357.959 M1146.656,390.704
		c-0.921,0.218-2.068,0.366-3.449,0.447c-1.379,0.081-2.962,0.122-4.746,0.122c-2.977,0-5.33-0.528-7.062-1.582
		c-1.731-1.056-2.597-2.935-2.597-5.641c0-1.461,0.352-2.639,1.055-3.53c0.703-0.893,1.583-1.595,2.638-2.111
		c1.055-0.512,2.218-0.851,3.49-1.013c1.271-0.162,2.476-0.244,3.611-0.244c1.73,0,3.205,0.095,4.422,0.284
		c1.218,0.19,2.097,0.42,2.638,0.69V390.704z M1202.286,390.177c-1.38,0.515-3.206,0.771-5.479,0.771
		c-1.298,0-2.435-0.164-3.408-0.487c-0.974-0.324-1.785-0.88-2.435-1.664c-0.649-0.783-1.136-1.866-1.461-3.246
		c-0.324-1.379-0.486-3.124-0.486-5.234V360.84h15.987v-6.33h-15.987v-13.065l-7.548,1.298v37.656c0,2.813,0.229,5.288,0.69,7.425
		c0.459,2.138,1.258,3.937,2.394,5.396c1.137,1.461,2.638,2.557,4.504,3.287c1.867,0.73,4.233,1.096,7.102,1.096
		c2.434,0,4.598-0.284,6.492-0.854c1.894-0.566,3.218-1.04,3.976-1.42l-1.459-6.249
		C1204.625,389.298,1203.666,389.663,1202.286,390.177 M1324.661,357.959c-1.271-1.433-2.948-2.542-5.031-3.327
		c-2.083-0.783-4.64-1.178-7.668-1.178c-2.652,0-5.113,0.203-7.386,0.609s-3.896,0.826-4.869,1.258l0.893,6.249
		c0.919-0.378,2.313-0.744,4.18-1.096c1.866-0.351,4.044-0.527,6.532-0.527c1.948,0,3.53,0.284,4.748,0.853
		c1.217,0.566,2.177,1.326,2.881,2.271c0.702,0.947,1.189,2.029,1.461,3.247c0.27,1.216,0.405,2.448,0.405,3.692v2.108
		c-0.217-0.052-0.595-0.133-1.136-0.242c-0.542-0.107-1.177-0.229-1.907-0.365c-0.73-0.135-1.502-0.243-2.313-0.324
		c-0.811-0.081-1.596-0.122-2.354-0.122c-2.381,0-4.653,0.243-6.816,0.73c-2.164,0.485-4.058,1.244-5.681,2.272
		s-2.909,2.38-3.854,4.058c-0.947,1.678-1.42,3.68-1.42,6.005c0,2.435,0.405,4.518,1.218,6.249c0.811,1.732,1.946,3.124,3.407,4.18
		c1.461,1.055,3.191,1.825,5.194,2.312c2.001,0.487,4.192,0.731,6.573,0.731c1.676,0,3.368-0.069,5.073-0.203
		c1.703-0.136,3.285-0.285,4.746-0.447s2.772-0.337,3.936-0.526s2.07-0.337,2.719-0.446v-26.375c0-2.38-0.271-4.557-0.812-6.533
		C1326.838,361.098,1325.931,359.394,1324.661,357.959 M1320.806,390.704c-0.921,0.218-2.069,0.366-3.449,0.447
		c-1.379,0.081-2.962,0.122-4.747,0.122c-2.977,0-5.329-0.528-7.061-1.582c-1.731-1.056-2.597-2.935-2.597-5.641
		c0-1.461,0.352-2.639,1.055-3.53c0.704-0.893,1.583-1.595,2.638-2.111c1.055-0.512,2.218-0.851,3.489-1.013
		c1.271-0.162,2.476-0.244,3.611-0.244c1.731,0,3.206,0.095,4.424,0.284c1.217,0.19,2.096,0.42,2.637,0.69V390.704z
		 M1444.764,390.177c-1.38,0.515-3.205,0.771-5.478,0.771c-1.299,0-2.435-0.164-3.408-0.487c-0.975-0.324-1.786-0.88-2.436-1.664
		c-0.647-0.783-1.136-1.866-1.46-3.246c-0.325-1.379-0.487-3.124-0.487-5.234V360.84h15.987v-6.33h-15.987v-13.065l-7.547,1.298
		v37.656c0,2.813,0.229,5.288,0.689,7.425c0.459,2.138,1.258,3.937,2.395,5.396c1.137,1.461,2.638,2.557,4.504,3.287
		s4.232,1.096,7.101,1.096c2.435,0,4.598-0.284,6.492-0.854c1.893-0.566,3.218-1.04,3.977-1.42l-1.461-6.249
		C1447.104,389.298,1446.144,389.663,1444.764,390.177 M1476.21,336.982c-1.354,0-2.502,0.446-3.449,1.339s-1.42,2.097-1.42,3.611
		s0.473,2.719,1.42,3.611s2.096,1.339,3.449,1.339c1.352,0,2.502-0.446,3.448-1.339s1.421-2.097,1.421-3.611
		s-0.475-2.719-1.421-3.611S1477.562,336.982,1476.21,336.982 M1472.477,396.71h7.548v-42.2h-7.548V396.71z M1562.84,359.055
		c-1.164-1.731-2.773-3.069-4.829-4.018c-2.057-0.945-4.706-1.421-7.952-1.421c-1.678,0-3.246,0.178-4.707,0.528
		c-1.461,0.352-2.787,0.759-3.976,1.218c-1.191,0.46-2.192,0.934-3.004,1.419c-0.812,0.488-1.407,0.867-1.785,1.138
		c-1.245-1.406-2.787-2.476-4.627-3.206c-1.839-0.73-4.111-1.097-6.815-1.097c-3.733,0-7.019,0.245-9.86,0.731
		c-2.841,0.487-5.127,0.947-6.857,1.38v40.982h7.547v-35.626c0.216-0.054,0.65-0.136,1.299-0.244
		c0.649-0.107,1.365-0.202,2.15-0.284c0.785-0.081,1.609-0.149,2.476-0.202c0.864-0.054,1.676-0.081,2.435-0.081
		c1.785,0,3.259,0.283,4.423,0.852c1.163,0.568,2.082,1.448,2.759,2.638c0.676,1.189,1.15,2.678,1.42,4.463
		c0.271,1.786,0.406,3.924,0.406,6.411v22.074h7.547v-23.697c0-1.838-0.108-3.598-0.324-5.274c-0.217-1.677-0.542-3.219-0.974-4.626
		c0.595-0.54,1.717-1.148,3.368-1.827c1.649-0.675,3.745-1.013,6.289-1.013c1.838,0,3.34,0.283,4.504,0.852
		c1.162,0.568,2.082,1.448,2.759,2.638c0.676,1.189,1.137,2.678,1.38,4.463c0.243,1.786,0.365,3.924,0.365,6.411v22.074h7.547
		v-23.697c0-2.813-0.203-5.409-0.608-7.79C1564.788,362.843,1564.003,360.787,1562.84,359.055 M1623.664,358.771
		c-3.03-3.543-7.385-5.316-13.065-5.316c-2.435,0-4.816,0.46-7.142,1.381c-2.327,0.92-4.382,2.3-6.166,4.139
		c-1.787,1.84-3.221,4.152-4.303,6.938c-1.083,2.787-1.623,6.047-1.623,9.78c0,3.192,0.419,6.127,1.258,8.804
		c0.838,2.679,2.123,4.992,3.854,6.939c1.731,1.948,3.937,3.476,6.614,4.585c2.679,1.108,5.855,1.664,9.535,1.664
		c2.922,0,5.531-0.272,7.832-0.813c2.299-0.54,3.907-1.054,4.828-1.542l-1.055-6.33c-0.921,0.435-2.286,0.881-4.099,1.34
		c-1.813,0.461-4.045,0.69-6.695,0.69c-4.707,0-8.17-1.137-10.387-3.41c-2.22-2.271-3.49-5.599-3.814-9.98h28.892
		c0.052-0.434,0.08-0.905,0.08-1.42v-1.258C1628.208,367.712,1626.693,362.315,1623.664,358.771 M1599.399,371.553
		c0.162-1.461,0.5-2.895,1.015-4.302c0.514-1.406,1.229-2.65,2.15-3.732c0.919-1.082,2.042-1.961,3.368-2.638
		c1.324-0.677,2.853-1.016,4.585-1.016c3.084,0,5.504,1.097,7.263,3.288c1.758,2.19,2.609,4.99,2.556,8.399H1599.399z"/>
	<path clip-path="url(#SVGID_2_)" fill="#A12144" d="M396.495,224.014c0,95.966-77.795,173.761-173.761,173.761
		c-95.965,0-173.76-77.795-173.76-173.761c0-95.965,77.795-173.76,173.76-173.76C318.7,50.254,396.495,128.049,396.495,224.014"/>
	<path clip-path="url(#SVGID_2_)" fill="#FFFFFF" d="M346.213,232.074c0,30.223-10.81,57.6-27.875,79.313
		c-21.76,27.687-54.023,45.875-90.625,45.875c-20.633,0-40.466-5.165-57-15.188c-16.392-9.938-29.522-24.532-39.687-41.5
		c-3.464-5.782-6.88-11.713-9.563-18c-2.235-5.237-4.631-10.922-6.312-16.688c-3.313-11.36-4.969-23.393-4.969-35.438
		c0-28.935,9.441-55.104,25.281-75.75c4.334-5.648,9.46-10.696,14.625-15.5c4.453-4.142,9.111-8.434,14.083-11.875
		c18.275-12.648,39.843-19.25,63.667-19.25c18.025,0,34.657,4.628,49.958,12.167c4.396,2.166,8.632,4.754,12.886,7.427
		c6.691,4.204,13.219,8.858,18.906,14.25c8.569,8.124,15.508,17.565,20.366,27.846C338.901,188.699,346.213,209.243,346.213,232.074
		"/>
	<path clip-path="url(#SVGID_2_)" fill="#A12144" d="M330.364,215.01c-1.788-15.108-6.252-29.155-13.807-41.437
		c-5.492-8.928-11.531-16.187-18.469-23.812c-4.657-5.119-9.869-10.05-15.781-14.094c-3.671-2.511-8-4.694-11.906-6.594
		c-13.599-6.61-28.42-9.812-44.438-9.812c-10.969,0-21.324,1.996-30.906,5.156c-8.913,2.94-17.143,6.843-24.969,12.188
		c-4.418,3.017-9.137,5.993-13.094,9.625c-4.589,4.212-8.399,8.984-12.25,13.937c-2.844,3.658-5.649,7.746-8.031,11.906
		c-9.407,16.43-15.375,36.005-15.375,56.25c0,8.475,0.547,26.451,8.375,46c2.004,5.003,4.45,10.047,7.625,15.105
		c2.23,3.552,4.842,7.208,7.542,10.645c1.3,1.657,2.78,3.372,4.354,5.208c4.999,5.835,11.673,12.296,20.229,16.542
		c6.53,3.242,13.045,6.06,19.209,8.48c3.63,1.426,7.048,2.886,10.52,3.75c6.826,1.698,12.861,2.983,18.058,3.798
		c0.526,0.082,1.729-0.559,1.729-1.012s-0.235-0.813-1.875-1.781c-1.641-0.969-31.391-16.36-31.391-56.485
		c0-40.125,25.665-63.875,37.02-73s32.23-20.25,54.73-20.25s38,11.25,49.875,28.375c0.547,0.787,1.155,1.612,1.641,2.016
		C329.636,216.261,330.499,215.796,330.364,215.01"/>
	<path clip-path="url(#SVGID_2_)" fill="#A12144" d="M201.213,283.907c0-10.877,2.085-23.792,8.417-35.75
		c8.073-15.247,22.265-29.152,39.333-37.583c9.746-4.814,20.512-8.167,32.917-8.167c40.833,0,44.833,23.5,44.833,36
		c0,4.416-0.165,17.59-5.5,32c-5.922,15.994-18.227,32.438-35.25,44.167c-11.058,7.618-23.235,14.167-39.917,14.167
		C206.546,328.741,201.213,303.574,201.213,283.907"/>
</g>
<path d="M442.521,266.05c0-15.502,2.243-29.034,6.74-40.608c4.492-11.568,10.447-21.173,17.861-28.813
	c7.414-7.635,15.95-13.364,25.612-17.187c9.657-3.818,19.546-5.729,29.656-5.729c23.59,0,41.672,7.361,54.257,22.073
	c12.58,14.718,18.872,37.128,18.872,67.231c0,1.349,0,3.092,0,5.224c0,2.138-0.116,4.103-0.337,5.897H475.209
	c1.348,18.198,6.624,32.016,15.839,41.451c9.21,9.437,23.59,14.154,43.136,14.154c11.005,0,20.272-0.953,27.802-2.864
	c7.525-1.906,13.196-3.76,17.019-5.561l4.381,26.286c-3.823,2.021-10.505,4.159-20.052,6.402c-9.552,2.243-20.389,3.37-32.521,3.37
	c-15.281,0-28.477-2.307-39.598-6.908c-11.121-4.603-20.278-10.953-27.465-19.041c-7.193-8.088-12.527-17.692-16.007-28.813
	C444.258,291.494,442.521,279.309,442.521,266.05z M562.83,248.864c0.221-14.154-3.317-25.781-10.616-34.88
	c-7.303-9.099-17.355-13.648-30.161-13.648c-7.193,0-13.538,1.406-19.041,4.213c-5.508,2.812-10.168,6.461-13.986,10.952
	c-3.823,4.497-6.798,9.662-8.93,15.502c-2.138,5.845-3.539,11.795-4.213,17.861H562.83z"/>
<path d="M626.27,183.149c7.188-1.796,16.734-3.707,28.645-5.729c11.906-2.021,25.612-3.033,41.114-3.033
	c13.927,0,25.496,1.97,34.711,5.897c9.209,3.934,16.565,9.437,22.073,16.514c5.502,7.076,9.378,15.56,11.626,25.443
	c2.243,9.889,3.37,20.783,3.37,32.688v98.404h-31.341v-91.664c0-10.784-0.732-19.993-2.19-27.634
	c-1.464-7.636-3.876-13.817-7.246-18.535c-3.37-4.718-7.867-8.141-13.48-10.278c-5.619-2.133-12.585-3.202-20.894-3.202
	c-3.37,0-6.856,0.116-10.447,0.338c-3.596,0.226-7.024,0.505-10.278,0.842c-3.259,0.337-6.182,0.732-8.762,1.18
	c-2.585,0.453-4.439,0.79-5.561,1.011v147.943H626.27V183.149z"/>
<path d="M855.875,356.704c-19.326-0.453-33.027-4.603-41.115-12.469c-8.088-7.862-12.131-20.104-12.131-36.733V97.213l31.34-5.392
	v210.625c0,5.171,0.447,9.436,1.348,12.806c0.896,3.37,2.359,6.066,4.383,8.088c2.021,2.022,4.717,3.539,8.088,4.55
	c3.369,1.011,7.523,1.854,12.469,2.527L855.875,356.704z"/>
<path d="M910.4,146.416c-5.618,0-10.395-1.854-14.322-5.561c-3.934-3.707-5.897-8.704-5.897-14.996
	c0-6.287,1.964-11.29,5.897-14.997c3.928-3.707,8.704-5.561,14.322-5.561c5.613,0,10.39,1.854,14.322,5.561
	c3.929,3.707,5.897,8.71,5.897,14.997c0,6.292-1.969,11.289-5.897,14.996C920.79,144.562,916.013,146.416,910.4,146.416z
	 M926.239,353.333h-31.341v-175.24h31.341V353.333z"/>
<path d="M1000.073,178.093h66.389v26.286h-66.389v80.88c0,8.763,0.674,16.008,2.021,21.736c1.349,5.729,3.37,10.227,6.066,13.48
	c2.696,3.26,6.065,5.561,10.109,6.908c4.045,1.349,8.763,2.022,14.154,2.022c9.437,0,17.019-1.063,22.748-3.202
	c5.729-2.132,9.715-3.648,11.963-4.549l6.066,25.949c-3.149,1.574-8.651,3.538-16.514,5.897c-7.866,2.358-16.85,3.538-26.96,3.538
	c-11.91,0-21.736-1.517-29.487-4.55s-13.985-7.582-18.703-13.648c-4.718-6.065-8.035-13.532-9.941-22.41
	c-1.912-8.873-2.864-19.151-2.864-30.836V129.228l31.341-5.392V178.093z"/>
<path d="M1092.68,266.05c0-15.502,2.243-29.034,6.74-40.608c4.492-11.568,10.447-21.173,17.861-28.813
	c7.414-7.635,15.949-13.364,25.612-17.187c9.657-3.818,19.546-5.729,29.655-5.729c23.591,0,41.673,7.361,54.258,22.073
	c12.579,14.718,18.871,37.128,18.871,67.231c0,1.349,0,3.092,0,5.224c0,2.138-0.115,4.103-0.337,5.897H1125.37
	c1.348,18.198,6.624,32.016,15.839,41.451c9.21,9.437,23.59,14.154,43.136,14.154c11.006,0,20.273-0.953,27.803-2.864
	c7.524-1.906,13.196-3.76,17.019-5.561l4.381,26.286c-3.822,2.021-10.505,4.159-20.051,6.402c-9.553,2.243-20.389,3.37-32.521,3.37
	c-15.281,0-28.477-2.307-39.598-6.908c-11.121-4.603-20.278-10.953-27.466-19.041c-7.192-8.088-12.527-17.692-16.008-28.813
	C1094.418,291.494,1092.68,279.309,1092.68,266.05z M1212.99,248.864c0.221-14.154-3.317-25.781-10.615-34.88
	c-7.304-9.099-17.355-13.648-30.162-13.648c-7.192,0-13.538,1.406-19.04,4.213c-5.508,2.812-10.168,6.461-13.985,10.952
	c-3.823,4.497-6.798,9.662-8.931,15.502c-2.138,5.845-3.539,11.795-4.213,17.861H1212.99z"/>
<path fill="#A12144" d="M1444.483,353.333c-3.822-10.11-7.414-20.052-10.784-29.824c-3.369-9.773-6.855-19.715-10.446-29.825
	h-105.818l-21.23,59.649h-34.037c8.982-24.712,17.408-47.569,25.274-68.579c7.862-21.005,15.555-40.946,23.085-59.818
	c7.524-18.871,14.996-36.901,22.41-54.088c7.414-17.188,15.165-34.206,23.253-51.056h29.993
	c8.088,16.85,15.839,33.868,23.253,51.056c7.414,17.187,14.881,35.217,22.411,54.088c7.524,18.872,15.217,38.813,23.084,59.818
	c7.861,21.01,16.286,43.867,25.275,68.579H1444.483z M1413.816,266.724c-7.192-19.546-14.322-38.471-21.399-56.784
	c-7.077-18.309-14.438-35.891-22.073-52.74c-7.867,16.85-15.334,34.432-22.41,52.74c-7.077,18.313-14.102,37.238-21.063,56.784
	H1413.816z"/>
<path fill="#A12144" d="M1505.479,119.792h32.688v233.541h-32.688V119.792z"/>
</svg>
